<svg xmlns="http://www.w3.org/2000/svg" width="500.001" height="700.001" viewBox="0 0 500.001 700.001">
  <path id="前面オブジェクトで型抜き_4" data-name="前面オブジェクトで型抜き 4" d="M500,700H0V0H500V700h0ZM445,390h0V660h30V390H445Zm-60,0h0V660h30V390H385Zm-60,0V660h30V390Zm-60,0V660h30V390Zm-60,0V660h30V390Zm-60,0V660h30V390Zm-60,0V660h30V390Zm-60,0V660H55V390ZM445,40h0V310h30V40H445Zm-60,0h0V310h30V40H385Zm-60,0V310h30V40Zm-60,0V310h30V40Zm-60,0V310h30V40Zm-60,0V310h30V40ZM85,40V310h30V40ZM25,40V310H55V40Z" transform="translate(0 0)" fill="#fff"/>
</svg>
