<svg xmlns="http://www.w3.org/2000/svg" width="500.001" height="700.001" viewBox="0 0 500.001 700.001">
  <g id="前面オブジェクトで型抜き_2" data-name="前面オブジェクトで型抜き 2" transform="translate(0 0)">
    <path d="M 498.50048828125 698.5014038085938 L 1.500126600265503 698.500244140625 L 1.500126600265503 1.49994432926178 L 498.50048828125 1.500034809112549 L 498.50048828125 698.5014038085938 Z M 443.4996643066406 386.3782958984375 L 443.4995727539063 389.9995727539063 L 443.4995727539063 659.9998779296875 L 443.4995727539063 661.4998779296875 L 444.9995727539063 661.4998779296875 L 475.0003051757813 661.4998779296875 L 476.5003051757813 661.4998779296875 L 476.5003051757813 659.9998779296875 L 476.5003051757813 389.9996643066406 L 476.5003051757813 388.4996643066406 L 475.0003051757813 388.4996643066406 L 445.6209716796875 388.4996643066406 L 443.4996643066406 386.3782958984375 Z M 383.5003051757813 386.3782958984375 L 383.5002136230469 389.9995727539063 L 383.5002136230469 659.9998779296875 L 383.5002136230469 661.4998779296875 L 385.0002136230469 661.4998779296875 L 415.0000305175781 661.4998779296875 L 416.5000305175781 661.4998779296875 L 416.5000305175781 659.9998779296875 L 416.5000305175781 389.9996643066406 L 416.5000305175781 388.4996643066406 L 415.0000305175781 388.4996643066406 L 385.62158203125 388.4996643066406 L 383.5003051757813 386.3782958984375 Z M 323.4999389648438 388.4996643066406 L 323.4999389648438 389.9996643066406 L 323.4999389648438 659.9998779296875 L 323.4999389648438 661.4998779296875 L 324.9999389648438 661.4998779296875 L 354.9995727539063 661.4998779296875 L 356.4995727539063 661.4998779296875 L 356.4995727539063 659.9998779296875 L 356.4996643066406 389.9996643066406 L 356.4996643066406 388.4996643066406 L 354.9996643066406 388.4996643066406 L 324.9999389648438 388.4996643066406 L 323.4999389648438 388.4996643066406 Z M 263.4995727539063 388.4996643066406 L 263.4995727539063 389.9996643066406 L 263.4995727539063 659.9998779296875 L 263.4995727539063 661.4998779296875 L 264.9995727539063 661.4998779296875 L 295.0002136230469 661.4998779296875 L 296.5002136230469 661.4998779296875 L 296.5002136230469 659.9998779296875 L 296.5003051757813 389.9996643066406 L 296.5003051757813 388.4996643066406 L 295.0003051757813 388.4996643066406 L 264.9995727539063 388.4996643066406 L 263.4995727539063 388.4996643066406 Z M 203.5001220703125 388.4996643066406 L 203.5001220703125 389.9996643066406 L 203.5001220703125 659.9998779296875 L 203.5001220703125 661.4998779296875 L 205.0001220703125 661.4998779296875 L 234.9998474121094 661.4998779296875 L 236.4998474121094 661.4998779296875 L 236.4998474121094 659.9998779296875 L 236.4999389648438 389.9996643066406 L 236.4999389648438 388.4996643066406 L 234.9999389648438 388.4996643066406 L 205.0001220703125 388.4996643066406 L 203.5001220703125 388.4996643066406 Z M 143.5000305175781 388.4996643066406 L 143.5000305175781 389.9996643066406 L 143.5000305175781 659.9998779296875 L 143.5000305175781 661.4998779296875 L 145.0000305175781 661.4998779296875 L 174.9995880126953 661.4998779296875 L 176.4995880126953 661.4998779296875 L 176.4995880126953 659.9998779296875 L 176.4996795654297 389.9996643066406 L 176.4996795654297 388.4996643066406 L 174.9996795654297 388.4996643066406 L 145.0000305175781 388.4996643066406 L 143.5000305175781 388.4996643066406 Z M 83.49967193603516 388.4996643066406 L 83.49967193603516 389.9996643066406 L 83.49967193603516 659.9998779296875 L 83.49967193603516 661.4998779296875 L 84.99967193603516 661.4998779296875 L 115.0003051757813 661.4998779296875 L 116.5003051757813 661.4998779296875 L 116.5003051757813 659.9998779296875 L 116.5002212524414 389.9996643066406 L 116.5002212524414 388.4996643066406 L 115.0002212524414 388.4996643066406 L 84.99967193603516 388.4996643066406 L 83.49967193603516 388.4996643066406 Z M 23.50030899047852 388.4996643066406 L 23.50030899047852 389.9996643066406 L 23.50030899047852 659.9998779296875 L 23.50030899047852 661.4998779296875 L 25.00030899047852 661.4998779296875 L 55.00003433227539 661.4998779296875 L 56.50003433227539 661.4998779296875 L 56.50003433227539 659.9998779296875 L 56.50003433227539 389.9996643066406 L 56.50003433227539 388.4996643066406 L 55.00003433227539 388.4996643066406 L 25.00030899047852 388.4996643066406 L 23.50030899047852 388.4996643066406 Z M 443.4996643066406 36.37821578979492 L 443.4995727539063 39.99948883056641 L 443.4995727539063 309.9995727539063 L 443.4995727539063 311.4995727539063 L 444.9995727539063 311.4995727539063 L 475.0003051757813 311.4995727539063 L 476.5003051757813 311.4995727539063 L 476.5003051757813 309.9995727539063 L 476.5003051757813 39.99958038330078 L 476.5003051757813 38.49958038330078 L 475.0003051757813 38.49958038330078 L 445.6209716796875 38.49958038330078 L 443.4996643066406 36.37821578979492 Z M 383.5003051757813 36.37821578979492 L 383.5002136230469 39.99948883056641 L 383.5002136230469 309.9995727539063 L 383.5002136230469 311.4995727539063 L 385.0002136230469 311.4995727539063 L 415.0000305175781 311.4995727539063 L 416.5000305175781 311.4995727539063 L 416.5000305175781 309.9995727539063 L 416.5000305175781 39.99958038330078 L 416.5000305175781 38.49958038330078 L 415.0000305175781 38.49958038330078 L 385.62158203125 38.49958038330078 L 383.5003051757813 36.37821578979492 Z M 323.4999389648438 38.49958038330078 L 323.4999389648438 39.99958038330078 L 323.4999389648438 309.9995727539063 L 323.4999389648438 311.4995727539063 L 324.9999389648438 311.4995727539063 L 354.9995727539063 311.4995727539063 L 356.4995727539063 311.4995727539063 L 356.4995727539063 309.9995727539063 L 356.4996643066406 39.99958038330078 L 356.4996643066406 38.49958038330078 L 354.9996643066406 38.49958038330078 L 324.9999389648438 38.49958038330078 L 323.4999389648438 38.49958038330078 Z M 263.4995727539063 38.49958038330078 L 263.4995727539063 39.99958038330078 L 263.4995727539063 309.9995727539063 L 263.4995727539063 311.4995727539063 L 264.9995727539063 311.4995727539063 L 295.0002136230469 311.4995727539063 L 296.5002136230469 311.4995727539063 L 296.5002136230469 309.9995727539063 L 296.5003051757813 39.99958038330078 L 296.5003051757813 38.49958038330078 L 295.0003051757813 38.49958038330078 L 264.9995727539063 38.49958038330078 L 263.4995727539063 38.49958038330078 Z M 203.5001220703125 38.49958038330078 L 203.5001220703125 39.99958038330078 L 203.5001220703125 309.9995727539063 L 203.5001220703125 311.4995727539063 L 205.0001220703125 311.4995727539063 L 234.9998474121094 311.4995727539063 L 236.4998474121094 311.4995727539063 L 236.4998474121094 309.9995727539063 L 236.4999389648438 39.99958038330078 L 236.4999389648438 38.49958038330078 L 234.9999389648438 38.49958038330078 L 205.0001220703125 38.49958038330078 L 203.5001220703125 38.49958038330078 Z M 143.5000305175781 38.49958038330078 L 143.5000305175781 39.99958038330078 L 143.5000305175781 309.9995727539063 L 143.5000305175781 311.4995727539063 L 145.0000305175781 311.4995727539063 L 174.9995880126953 311.4995727539063 L 176.4995880126953 311.4995727539063 L 176.4995880126953 309.9995727539063 L 176.4996795654297 39.99958038330078 L 176.4996795654297 38.49958038330078 L 174.9996795654297 38.49958038330078 L 145.0000305175781 38.49958038330078 L 143.5000305175781 38.49958038330078 Z M 83.49967193603516 38.49958038330078 L 83.49967193603516 39.99958038330078 L 83.49967193603516 309.9995727539063 L 83.49967193603516 311.4995727539063 L 84.99967193603516 311.4995727539063 L 115.0003051757813 311.4995727539063 L 116.5003051757813 311.4995727539063 L 116.5003051757813 309.9995727539063 L 116.5002212524414 39.99958038330078 L 116.5002212524414 38.49958038330078 L 115.0002212524414 38.49958038330078 L 84.99967193603516 38.49958038330078 L 83.49967193603516 38.49958038330078 Z M 23.50030899047852 38.49958038330078 L 23.50030899047852 39.99958038330078 L 23.50030899047852 309.9995727539063 L 23.50030899047852 311.4995727539063 L 25.00030899047852 311.4995727539063 L 55.00003433227539 311.4995727539063 L 56.50003433227539 311.4995727539063 L 56.50003433227539 309.9995727539063 L 56.50003433227539 39.99958038330078 L 56.50003433227539 38.49958038330078 L 55.00003433227539 38.49958038330078 L 25.00030899047852 38.49958038330078 L 23.50030899047852 38.49958038330078 Z" stroke="none"/>
    <path d="M 497.00048828125 697.0014038085938 L 497.00048828125 3.00003457069397 L 3.000126600265503 2.999944686889648 L 3.000126600265503 697.000244140625 L 497.00048828125 697.0014038085938 M 441.9996643066406 382.7570495605469 L 446.2423706054688 386.9996643066406 L 475.0003051757813 386.9996643066406 L 478.0003051757813 386.9996643066406 L 478.0003051757813 389.9996643066406 L 478.0003051757813 659.9998779296875 L 478.0003051757813 662.9998779296875 L 475.0003051757813 662.9998779296875 L 444.9995727539063 662.9998779296875 L 441.9995727539063 662.9998779296875 L 441.9995727539063 659.9998779296875 L 441.9995727539063 389.9995727539063 L 441.9996643066406 382.7570495605469 M 382.0003051757813 382.7570495605469 L 386.2430114746094 386.9996643066406 L 415.0000305175781 386.9996643066406 L 418.0000305175781 386.9996643066406 L 418.0000305175781 389.9996643066406 L 418.0000305175781 659.9998779296875 L 418.0000305175781 662.9998779296875 L 415.0000305175781 662.9998779296875 L 385.0002136230469 662.9998779296875 L 382.0002136230469 662.9998779296875 L 382.0002136230469 659.9998779296875 L 382.0002136230469 389.9995727539063 L 382.0003051757813 382.7570495605469 M 321.9999389648438 386.9996643066406 L 324.9999389648438 386.9996643066406 L 354.9996643066406 386.9996643066406 L 357.9996643066406 386.9996643066406 L 357.9996643066406 389.9996643066406 L 357.9995727539063 659.9998779296875 L 357.9995727539063 662.9998779296875 L 354.9995727539063 662.9998779296875 L 324.9999389648438 662.9998779296875 L 321.9999389648438 662.9998779296875 L 321.9999389648438 659.9998779296875 L 321.9999389648438 389.9996643066406 L 321.9999389648438 386.9996643066406 M 261.9995727539063 386.9996643066406 L 264.9995727539063 386.9996643066406 L 295.0003051757813 386.9996643066406 L 298.0003051757813 386.9996643066406 L 298.0003051757813 389.9996643066406 L 298.0002136230469 659.9998779296875 L 298.0002136230469 662.9998779296875 L 295.0002136230469 662.9998779296875 L 264.9995727539063 662.9998779296875 L 261.9995727539063 662.9998779296875 L 261.9995727539063 659.9998779296875 L 261.9995727539063 389.9996643066406 L 261.9995727539063 386.9996643066406 M 202.0001220703125 386.9996643066406 L 205.0001220703125 386.9996643066406 L 234.9999389648438 386.9996643066406 L 237.9999389648438 386.9996643066406 L 237.9999389648438 389.9996643066406 L 237.9998474121094 659.9998779296875 L 237.9998474121094 662.9998779296875 L 234.9998474121094 662.9998779296875 L 205.0001220703125 662.9998779296875 L 202.0001220703125 662.9998779296875 L 202.0001220703125 659.9998779296875 L 202.0001220703125 389.9996643066406 L 202.0001220703125 386.9996643066406 M 142.0000305175781 386.9996643066406 L 145.0000305175781 386.9996643066406 L 174.9996795654297 386.9996643066406 L 177.9996795654297 386.9996643066406 L 177.9996795654297 389.9996643066406 L 177.9995880126953 659.9998779296875 L 177.9995880126953 662.9998779296875 L 174.9995880126953 662.9998779296875 L 145.0000305175781 662.9998779296875 L 142.0000305175781 662.9998779296875 L 142.0000305175781 659.9998779296875 L 142.0000305175781 389.9996643066406 L 142.0000305175781 386.9996643066406 M 81.99967193603516 386.9996643066406 L 84.99967193603516 386.9996643066406 L 115.0002212524414 386.9996643066406 L 118.0002212524414 386.9996643066406 L 118.0002212524414 389.9996643066406 L 118.0003051757813 659.9998779296875 L 118.0003051757813 662.9998779296875 L 115.0003051757813 662.9998779296875 L 84.99967193603516 662.9998779296875 L 81.99967193603516 662.9998779296875 L 81.99967193603516 659.9998779296875 L 81.99967193603516 389.9996643066406 L 81.99967193603516 386.9996643066406 M 22.00030899047852 386.9996643066406 L 25.00030899047852 386.9996643066406 L 55.00003433227539 386.9996643066406 L 58.00003433227539 386.9996643066406 L 58.00003433227539 389.9996643066406 L 58.00003433227539 659.9998779296875 L 58.00003433227539 662.9998779296875 L 55.00003433227539 662.9998779296875 L 25.00030899047852 662.9998779296875 L 22.00030899047852 662.9998779296875 L 22.00030899047852 659.9998779296875 L 22.00030899047852 389.9996643066406 L 22.00030899047852 386.9996643066406 M 441.9996643066406 32.75694274902344 L 446.2423706054688 36.99958038330078 L 475.0003051757813 36.99958038330078 L 478.0003051757813 36.99958038330078 L 478.0003051757813 39.99958038330078 L 478.0003051757813 309.9995727539063 L 478.0003051757813 312.9995727539063 L 475.0003051757813 312.9995727539063 L 444.9995727539063 312.9995727539063 L 441.9995727539063 312.9995727539063 L 441.9995727539063 309.9995727539063 L 441.9995727539063 39.99948883056641 L 441.9996643066406 32.75694274902344 M 382.0003051757813 32.75694274902344 L 386.2430114746094 36.99958038330078 L 415.0000305175781 36.99958038330078 L 418.0000305175781 36.99958038330078 L 418.0000305175781 39.99958038330078 L 418.0000305175781 309.9995727539063 L 418.0000305175781 312.9995727539063 L 415.0000305175781 312.9995727539063 L 385.0002136230469 312.9995727539063 L 382.0002136230469 312.9995727539063 L 382.0002136230469 309.9995727539063 L 382.0002136230469 39.99948883056641 L 382.0003051757813 32.75694274902344 M 321.9999389648438 36.99958038330078 L 324.9999389648438 36.99958038330078 L 354.9996643066406 36.99958038330078 L 357.9996643066406 36.99958038330078 L 357.9996643066406 39.99958038330078 L 357.9995727539063 309.9995727539063 L 357.9995727539063 312.9995727539063 L 354.9995727539063 312.9995727539063 L 324.9999389648438 312.9995727539063 L 321.9999389648438 312.9995727539063 L 321.9999389648438 309.9995727539063 L 321.9999389648438 39.99958038330078 L 321.9999389648438 36.99958038330078 M 261.9995727539063 36.99958038330078 L 264.9995727539063 36.99958038330078 L 295.0003051757813 36.99958038330078 L 298.0003051757813 36.99958038330078 L 298.0003051757813 39.99958038330078 L 298.0002136230469 309.9995727539063 L 298.0002136230469 312.9995727539063 L 295.0002136230469 312.9995727539063 L 264.9995727539063 312.9995727539063 L 261.9995727539063 312.9995727539063 L 261.9995727539063 309.9995727539063 L 261.9995727539063 39.99958038330078 L 261.9995727539063 36.99958038330078 M 202.0001220703125 36.99958038330078 L 205.0001220703125 36.99958038330078 L 234.9999389648438 36.99958038330078 L 237.9999389648438 36.99958038330078 L 237.9999389648438 39.99958038330078 L 237.9998474121094 309.9995727539063 L 237.9998474121094 312.9995727539063 L 234.9998474121094 312.9995727539063 L 205.0001220703125 312.9995727539063 L 202.0001220703125 312.9995727539063 L 202.0001220703125 309.9995727539063 L 202.0001220703125 39.99958038330078 L 202.0001220703125 36.99958038330078 M 142.0000305175781 36.99958038330078 L 145.0000305175781 36.99958038330078 L 174.9996795654297 36.99958038330078 L 177.9996795654297 36.99958038330078 L 177.9996795654297 39.99958038330078 L 177.9995880126953 309.9995727539063 L 177.9995880126953 312.9995727539063 L 174.9995880126953 312.9995727539063 L 145.0000305175781 312.9995727539063 L 142.0000305175781 312.9995727539063 L 142.0000305175781 309.9995727539063 L 142.0000305175781 39.99958038330078 L 142.0000305175781 36.99958038330078 M 81.99967193603516 36.99958038330078 L 84.99967193603516 36.99958038330078 L 115.0002212524414 36.99958038330078 L 118.0002212524414 36.99958038330078 L 118.0002212524414 39.99958038330078 L 118.0003051757813 309.9995727539063 L 118.0003051757813 312.9995727539063 L 115.0003051757813 312.9995727539063 L 84.99967193603516 312.9995727539063 L 81.99967193603516 312.9995727539063 L 81.99967193603516 309.9995727539063 L 81.99967193603516 39.99958038330078 L 81.99967193603516 36.99958038330078 M 22.00030899047852 36.99958038330078 L 25.00030899047852 36.99958038330078 L 55.00003433227539 36.99958038330078 L 58.00003433227539 36.99958038330078 L 58.00003433227539 39.99958038330078 L 58.00003433227539 309.9995727539063 L 58.00003433227539 312.9995727539063 L 55.00003433227539 312.9995727539063 L 25.00030899047852 312.9995727539063 L 22.00030899047852 312.9995727539063 L 22.00030899047852 309.9995727539063 L 22.00030899047852 39.99958038330078 L 22.00030899047852 36.99958038330078 M 500.0014953613281 700.0014038085938 L 500.00048828125 700.0014038085938 L 500.0014953613281 700.0014038085938 Z M 500.0014953613281 700.0014038085938 L 0.000126575818285346 700.000244140625 L 0.000126575818285346 -5.588600834016688e-05 L 500.00048828125 3.502308391034603e-05 L 500.00048828125 700.0003051757813 L 500.00048828125 700.0014038085938 Z M 444.9995727539063 389.9995727539063 L 444.9995727539063 389.9996643066406 L 444.9995727539063 659.9998779296875 L 475.0003051757813 659.9998779296875 L 475.0003051757813 389.9996643066406 L 444.9996643066406 389.9996643066406 L 444.9995727539063 389.9995727539063 Z M 385.0002136230469 389.9995727539063 L 385.0002136230469 389.9996643066406 L 385.0002136230469 659.9998779296875 L 415.0000305175781 659.9998779296875 L 415.0000305175781 389.9996643066406 L 385.0003051757813 389.9996643066406 L 385.0002136230469 389.9995727539063 Z M 324.9999389648438 389.9996643066406 L 324.9999389648438 659.9998779296875 L 354.9995727539063 659.9998779296875 L 354.9996643066406 389.9996643066406 L 324.9999389648438 389.9996643066406 Z M 264.9995727539063 389.9996643066406 L 264.9995727539063 659.9998779296875 L 295.0002136230469 659.9998779296875 L 295.0003051757813 389.9996643066406 L 264.9995727539063 389.9996643066406 Z M 205.0001220703125 389.9996643066406 L 205.0001220703125 659.9998779296875 L 234.9998474121094 659.9998779296875 L 234.9999389648438 389.9996643066406 L 205.0001220703125 389.9996643066406 Z M 145.0000305175781 389.9996643066406 L 145.0000305175781 659.9998779296875 L 174.9995880126953 659.9998779296875 L 174.9996795654297 389.9996643066406 L 145.0000305175781 389.9996643066406 Z M 84.99967193603516 389.9996643066406 L 84.99967193603516 659.9998779296875 L 115.0003051757813 659.9998779296875 L 115.0002212524414 389.9996643066406 L 84.99967193603516 389.9996643066406 Z M 25.00030899047852 389.9996643066406 L 25.00030899047852 659.9998779296875 L 55.00003433227539 659.9998779296875 L 55.00003433227539 389.9996643066406 L 25.00030899047852 389.9996643066406 Z M 444.9995727539063 39.99948883056641 L 444.9995727539063 39.99958038330078 L 444.9995727539063 309.9995727539063 L 475.0003051757813 309.9995727539063 L 475.0003051757813 39.99958038330078 L 444.9996643066406 39.99958038330078 L 444.9995727539063 39.99948883056641 Z M 385.0002136230469 39.99948883056641 L 385.0002136230469 39.99958038330078 L 385.0002136230469 309.9995727539063 L 415.0000305175781 309.9995727539063 L 415.0000305175781 39.99958038330078 L 385.0003051757813 39.99958038330078 L 385.0002136230469 39.99948883056641 Z M 324.9999389648438 39.99958038330078 L 324.9999389648438 309.9995727539063 L 354.9995727539063 309.9995727539063 L 354.9996643066406 39.99958038330078 L 324.9999389648438 39.99958038330078 Z M 264.9995727539063 39.99958038330078 L 264.9995727539063 309.9995727539063 L 295.0002136230469 309.9995727539063 L 295.0003051757813 39.99958038330078 L 264.9995727539063 39.99958038330078 Z M 205.0001220703125 39.99958038330078 L 205.0001220703125 309.9995727539063 L 234.9998474121094 309.9995727539063 L 234.9999389648438 39.99958038330078 L 205.0001220703125 39.99958038330078 Z M 145.0000305175781 39.99958038330078 L 145.0000305175781 309.9995727539063 L 174.9995880126953 309.9995727539063 L 174.9996795654297 39.99958038330078 L 145.0000305175781 39.99958038330078 Z M 84.99967193603516 39.99958038330078 L 84.99967193603516 309.9995727539063 L 115.0003051757813 309.9995727539063 L 115.0002212524414 39.99958038330078 L 84.99967193603516 39.99958038330078 Z M 25.00030899047852 39.99958038330078 L 25.00030899047852 309.9995727539063 L 55.00003433227539 309.9995727539063 L 55.00003433227539 39.99958038330078 L 25.00030899047852 39.99958038330078 Z" stroke="none" fill="#fff"/>
  </g>
</svg>
