<?xml version="1.0" encoding="UTF-8" standalone="no"?><!-- Generator: Gravit.io --><svg xmlns="http://www.w3.org/2000/svg" xmlns:xlink="http://www.w3.org/1999/xlink" style="isolation:isolate" viewBox="0 0 1920 1280" width="1920pt" height="1280pt"><defs><clipPath id="_clipPath_KAAIgTwd2vEzorj3FV6R84kj5fwSLI3c"><rect width="1920" height="1280"/></clipPath></defs><g clip-path="url(#_clipPath_KAAIgTwd2vEzorj3FV6R84kj5fwSLI3c)"><g><g><path d=" M 1012.674 744.724 C 1023.374 740.424 1065.074 730.024 1071.474 734.024 C 1077.874 738.024 1089.974 738.824 1099.574 736.424 C 1109.174 734.024 1133.274 750.924 1161.374 749.324 C 1189.474 747.724 1236.874 750.924 1253.674 748.524 C 1270.574 746.124 1298.674 751.724 1310.674 754.924 C 1322.674 758.124 1358.074 758.124 1361.274 757.324 C 1364.474 756.524 1394.974 758.124 1406.274 757.324 C 1417.474 756.524 1449.674 754.124 1471.274 757.324 C 1492.974 760.524 1509.774 754.924 1526.674 750.924 C 1543.574 746.924 1620.674 749.324 1656.774 750.124 C 1692.874 750.924 1726.674 742.124 1753.974 719.624 C 1781.274 697.124 1774.874 647.324 1757.974 614.424 C 1741.074 581.524 1676.874 561.024 1640.674 561.024 C 1604.474 561.024 1573.174 560.224 1549.974 558.324 C 1521.074 555.924 1496.174 556.624 1486.574 559.024 C 1476.974 561.424 1439.974 561.424 1415.874 560.624 C 1391.774 559.824 1370.274 560.624 1337.974 561.324 C 1302.674 562.124 1287.374 558.224 1255.274 556.624 C 1223.174 555.024 1194.274 568.624 1154.074 568.624 C 1113.874 568.624 1101.874 579.024 1074.574 616.024 C 1041.674 638.524 1058.474 671.424 1056.874 696.324 C 1055.274 721.224 1028.774 732.424 1024.774 741.324 L 1012.674 744.724 Z " fill="rgb(255,255,255)"/><g><path d=" M 1011.174 742.924 C 1021.474 738.924 1032.474 736.424 1043.274 734.224 C 1048.974 733.024 1054.674 732.024 1060.474 731.524 C 1063.674 731.224 1067.374 730.924 1070.374 732.224 C 1073.774 733.624 1076.674 735.024 1080.274 735.524 C 1084.974 736.224 1089.774 736.124 1094.474 735.324 C 1099.974 734.424 1103.674 734.424 1109.074 736.124 C 1124.574 740.924 1139.274 747.524 1155.874 747.524 C 1171.474 747.624 1186.974 746.924 1202.574 747.224 C 1216.874 747.424 1231.174 748.024 1245.474 747.224 C 1251.474 746.924 1257.274 745.924 1263.274 746.024 C 1270.774 746.124 1278.274 747.024 1285.674 748.124 C 1297.674 749.924 1309.274 753.724 1321.374 754.824 C 1341.674 756.724 1361.974 755.124 1382.274 755.524 C 1409.374 756.024 1436.474 752.124 1463.574 754.724 C 1473.074 755.624 1482.174 756.924 1491.774 756.024 C 1500.574 755.224 1509.074 753.124 1517.574 751.024 C 1527.174 748.624 1536.274 747.624 1546.174 747.224 C 1574.074 746.224 1602.174 747.024 1630.074 747.724 C 1643.974 748.024 1658.074 748.924 1671.974 748.024 C 1689.474 746.924 1706.774 743.224 1722.874 736.124 C 1737.374 729.724 1753.674 720.524 1762.174 706.624 C 1769.774 694.224 1771.574 678.924 1770.674 664.624 C 1769.674 649.024 1765.574 633.524 1759.174 619.324 C 1753.374 606.524 1744.274 597.324 1732.474 589.724 C 1708.774 574.524 1679.474 565.424 1651.474 563.124 C 1633.374 561.624 1614.974 562.624 1596.874 562.224 C 1580.674 561.824 1564.574 561.024 1548.474 559.724 C 1530.974 558.424 1512.974 557.524 1495.474 559.524 C 1491.074 560.024 1486.774 561.124 1482.374 561.624 C 1475.874 562.324 1469.374 562.524 1462.874 562.624 C 1430.474 563.424 1397.974 561.624 1365.574 562.424 C 1346.974 562.824 1328.474 563.624 1309.874 562.524 C 1294.174 561.624 1278.674 559.624 1262.974 558.624 C 1227.174 556.324 1193.074 569.924 1157.374 570.324 C 1144.474 570.424 1131.274 570.824 1119.274 575.924 C 1108.174 580.524 1099.474 588.924 1091.774 597.924 C 1086.574 604.024 1082.274 611.124 1076.874 616.924 C 1074.074 619.924 1070.274 622.124 1067.374 625.224 C 1064.774 628.024 1062.474 631.124 1060.774 634.524 C 1054.374 646.924 1055.674 661.224 1057.274 674.624 C 1058.774 687.124 1060.774 700.024 1054.974 711.724 C 1049.674 722.324 1040.074 729.124 1031.574 737.024 C 1029.374 739.024 1027.774 742.324 1025.174 743.324 C 1021.674 744.724 1017.674 745.424 1014.074 746.524 C 1012.874 746.824 1009.874 743.224 1011.174 742.924 C 1012.674 742.524 1014.074 742.124 1015.574 741.624 C 1017.574 741.024 1020.974 740.724 1022.774 739.524 C 1023.774 738.924 1024.274 737.624 1025.174 736.624 C 1026.674 734.924 1028.374 733.424 1030.074 731.924 C 1039.674 723.624 1050.074 715.324 1053.874 702.624 C 1057.774 689.724 1053.774 675.624 1052.774 662.624 C 1051.674 649.324 1052.974 635.724 1061.474 624.824 C 1063.774 621.924 1066.474 619.224 1069.274 616.924 C 1073.074 613.924 1075.574 610.724 1078.474 606.824 C 1083.074 600.724 1087.874 594.824 1093.074 589.224 C 1100.774 581.024 1109.674 574.224 1120.374 570.624 C 1134.274 565.924 1148.874 567.124 1163.274 566.224 C 1181.474 565.124 1199.274 561.124 1217.174 557.824 C 1234.174 554.724 1250.474 554.024 1267.674 555.324 C 1283.574 556.524 1299.474 558.524 1315.374 559.124 C 1335.274 559.824 1355.174 558.724 1374.974 558.324 C 1391.174 558.024 1407.374 558.324 1423.574 558.724 C 1439.374 559.124 1455.274 559.224 1470.974 558.424 C 1481.674 557.824 1492.074 555.424 1502.774 554.924 C 1520.674 554.124 1538.474 555.524 1556.374 556.724 C 1574.674 558.024 1593.074 558.424 1611.374 558.724 C 1627.174 558.924 1643.174 558.124 1658.874 560.424 C 1673.174 562.824 1687.074 566.524 1700.574 571.524 C 1723.974 580.224 1749.474 593.824 1760.874 617.224 C 1773.074 642.224 1780.474 675.624 1769.374 702.324 C 1763.374 716.824 1750.874 726.124 1737.474 733.624 C 1722.474 742.124 1705.774 747.424 1688.774 749.924 C 1673.274 752.224 1657.874 751.724 1642.274 751.324 C 1627.874 751.024 1613.374 750.624 1598.974 750.424 C 1584.774 750.224 1570.574 750.124 1556.374 750.424 C 1547.274 750.624 1537.674 750.524 1528.774 752.424 C 1511.674 756.024 1495.674 761.124 1477.974 759.524 C 1468.774 758.724 1459.774 757.424 1450.474 757.324 C 1442.174 757.224 1433.874 757.424 1425.674 757.824 C 1413.974 758.424 1402.374 759.224 1390.674 759.124 C 1381.074 758.924 1371.374 758.124 1361.874 759.124 C 1351.374 760.224 1340.374 759.424 1329.874 758.824 C 1317.874 758.024 1306.674 754.924 1294.874 752.824 C 1286.874 751.424 1278.874 750.224 1270.774 749.824 C 1263.974 749.424 1257.574 750.224 1250.774 750.724 C 1236.774 751.824 1222.574 751.124 1208.474 750.824 C 1192.774 750.524 1177.074 750.624 1161.374 751.124 C 1144.974 751.624 1129.874 746.024 1114.674 740.724 C 1108.774 738.724 1104.374 737.724 1098.374 738.824 C 1091.074 740.124 1082.974 740.024 1075.974 737.424 C 1073.974 736.724 1072.274 735.424 1070.274 735.124 C 1068.074 734.724 1065.674 735.024 1063.574 735.224 C 1057.474 735.724 1051.274 736.924 1045.274 738.224 C 1034.874 740.424 1024.174 742.824 1014.274 746.724 C 1012.874 746.924 1009.874 743.424 1011.174 742.924 Z " fill="rgb(0,0,0)"/></g></g></g></g></svg>