<!--?xml version="1.0" encoding="utf-8"?-->
<!-- Generator: Adobe Illustrator 22.1.0, SVG Export Plug-In . SVG Version: 6.00 Build 0)  -->
<svg version="1.1" id="_x31__1_" xmlns="http://www.w3.org/2000/svg" xmlns:xlink="http://www.w3.org/1999/xlink" x="0px" y="0px" viewBox="0 0 800 212.5" style="width: 743px;" xml:space="preserve">
<style type="text/css">
	.stblack{fill:#000000;}
	.st0{fill:#FFFFFF;}
</style>
<g>
	<g>
		<path class="st0" d="M782.2,195.2c-10.7-4.3-52.4-14.7-58.8-10.7c-6.4,4-18.5,4.8-28.1,2.4c-9.6-2.4-33.7,14.5-61.8,12.9
			c-28.1-1.6-75.5,1.6-92.3-0.8c-16.9-2.4-45,3.2-57,6.4c-12,3.2-47.4,3.2-50.6,2.4c-3.2-0.8-33.7,0.8-45,0c-11.2-0.8-43.4-3.2-65,0
			c-21.7,3.2-38.5-2.4-55.4-6.4c-16.9-4-94-1.6-130.1-0.8c-36.1,0.8-69.9-8-97.2-30.5c-27.3-22.5-20.9-72.3-4-105.2
			c16.9-32.9,81.1-53.4,117.3-53.4s67.5-0.8,90.7-2.7c28.9-2.4,53.8-1.7,63.4,0.7c9.6,2.4,46.6,2.4,70.7,1.6
			c24.1-0.8,45.6,0,77.9,0.7c35.3,0.8,50.6-3.1,82.7-4.7c32.1-1.6,61,12,101.2,12s52.2,10.4,79.5,47.4
			c32.9,22.5,16.1,55.4,17.7,80.3c1.6,24.9,28.1,36.1,32.1,45L782.2,195.2z"></path>
		<g>
			<path class="stblack" d="M783.7,193.4c-10.3-4-21.3-6.5-32.1-8.7c-5.7-1.2-11.4-2.2-17.2-2.7c-3.2-0.3-6.9-0.6-9.9,0.7c-3.4,1.4-6.3,2.8-9.9,3.3
				c-4.7,0.7-9.5,0.6-14.2-0.2c-5.5-0.9-9.2-0.9-14.6,0.8c-15.5,4.8-30.2,11.4-46.8,11.4c-15.6,0.1-31.1-0.6-46.7-0.3
				c-14.3,0.2-28.6,0.8-42.9,0c-6-0.3-11.8-1.3-17.8-1.2c-7.5,0.1-15,1-22.4,2.1c-12,1.8-23.6,5.6-35.7,6.7
				c-20.3,1.9-40.6,0.3-60.9,0.7c-27.1,0.5-54.2-3.4-81.3-0.8c-9.5,0.9-18.6,2.2-28.2,1.3c-8.8-0.8-17.3-2.9-25.8-5
				c-9.6-2.4-18.7-3.4-28.6-3.8c-27.9-1-56-0.2-83.9,0.5c-13.9,0.3-28,1.2-41.9,0.3c-17.5-1.1-34.8-4.8-50.9-11.9
				c-14.5-6.4-30.8-15.6-39.3-29.5c-7.6-12.4-9.4-27.7-8.5-42c1-15.6,5.1-31.1,11.5-45.3c5.8-12.8,14.9-22,26.7-29.6
				c23.7-15.2,53-24.3,81-26.6c18.1-1.5,36.5-0.5,54.6-0.9c16.2-0.4,32.3-1.2,48.4-2.5c17.5-1.3,35.5-2.2,53-0.2
				c4.4,0.5,8.7,1.6,13.1,2.1c6.5,0.7,13,0.9,19.5,1c32.4,0.8,64.9-1,97.3-0.2c18.6,0.4,37.1,1.2,55.7,0.1
				c15.7-0.9,31.2-2.9,46.9-3.9c35.8-2.3,69.9,11.3,105.6,11.7c12.9,0.1,26.1,0.5,38.1,5.6c11.1,4.6,19.8,13,27.5,22
				c5.2,6.1,9.5,13.2,14.9,19c2.8,3,6.6,5.2,9.5,8.3c2.6,2.8,4.9,5.9,6.6,9.3c6.4,12.4,5.1,26.7,3.5,40.1
				c-1.5,12.5-3.5,25.4,2.3,37.1c5.3,10.6,14.9,17.4,23.4,25.3c2.2,2,3.8,5.3,6.4,6.3c3.5,1.4,7.5,2.1,11.1,3.2
				C782,197.3,785,193.7,783.7,193.4c-1.5-0.4-2.9-0.8-4.4-1.3c-2-0.6-5.4-0.9-7.2-2.1c-1-0.6-1.5-1.9-2.4-2.9
				c-1.5-1.7-3.2-3.2-4.9-4.7c-9.6-8.3-20-16.6-23.8-29.3c-3.9-12.9,0.1-27,1.1-40c1.1-13.3-0.2-26.9-8.7-37.8
				c-2.3-2.9-5-5.6-7.8-7.9c-3.8-3-6.3-6.2-9.2-10.1c-4.6-6.1-9.4-12-14.6-17.6c-7.7-8.2-16.6-15-27.3-18.6
				c-13.9-4.7-28.5-3.5-42.9-4.4c-18.2-1.1-36-5.1-53.9-8.4c-17-3.1-33.3-3.8-50.5-2.5c-15.9,1.2-31.8,3.2-47.7,3.8
				c-19.9,0.7-39.8-0.4-59.6-0.8c-16.2-0.3-32.4,0-48.6,0.4c-15.8,0.4-31.7,0.5-47.4-0.3c-10.7-0.6-21.1-3-31.8-3.5
				c-17.9-0.8-35.7,0.6-53.6,1.8c-18.3,1.3-36.7,1.7-55,2c-15.8,0.2-31.8-0.6-47.5,1.7C121.7,13.3,107.8,17,94.3,22
				C70.9,30.7,45.4,44.3,34,67.7c-12.2,25-19.6,58.4-8.5,85.1c6,14.5,18.5,23.8,31.9,31.3c15,8.5,31.7,13.8,48.7,16.3
				c15.5,2.3,30.9,1.8,46.5,1.4c14.4-0.3,28.9-0.7,43.3-0.9c14.2-0.2,28.4-0.3,42.6,0c9.1,0.2,18.7,0.1,27.6,2
				c17.1,3.6,33.1,8.7,50.8,7.1c9.2-0.8,18.2-2.1,27.5-2.2c8.3-0.1,16.6,0.1,24.8,0.5c11.7,0.6,23.3,1.4,35,1.3
				c9.6-0.2,19.3-1,28.8,0c10.5,1.1,21.5,0.3,32-0.3c12-0.8,23.2-3.9,35-6c8-1.4,16-2.6,24.1-3c6.8-0.4,13.2,0.4,20,0.9
				c14,1.1,28.2,0.4,42.3,0.1c15.7-0.3,31.4-0.2,47.1,0.3c16.4,0.5,31.5-5.1,46.7-10.4c5.9-2,10.3-3,16.3-1.9
				c7.3,1.3,15.4,1.2,22.4-1.4c2-0.7,3.7-2,5.7-2.3c2.2-0.4,4.6-0.1,6.7,0.1c6.1,0.5,12.3,1.7,18.3,3c10.4,2.2,21.1,4.6,31,8.5
				C782,197.4,785,193.9,783.7,193.4z"></path>
		</g>
	</g>
</g>
</svg>
